<svg width="32" height="32" viewBox="0 0 32 32" fill="none" xmlns="http://www.w3.org/2000/svg">
<path d="M0 10.6667C0 4.77563 4.77563 0 10.6667 0H21.3333C27.2244 0 32 4.77563 32 10.6667V21.3333C32 27.2244 27.2244 32 21.3333 32H10.6667C4.77563 32 0 27.2244 0 21.3333V10.6667Z" fill="#1F1F1F"/>
<path d="M6.66528 14.8092H8.46641V9.74842L12.549 14.8092H14.17V6.66544H12.3689V11.7262L8.2863 6.66544H6.66528V14.8092Z" fill="white"/>
<path d="M16.3276 14.8092H18.1287V9.45757L20.8304 12.7151L23.5321 9.45757V14.8092H25.3333V6.66544H23.7122L20.8304 10.1556L17.9486 6.66544H16.3276V14.8092Z" fill="white"/>
<path d="M6.66528 25.1601H13.0319V23.532H8.46717V21.7876H11.9508V20.2176H8.46717V18.6477H12.9118V17.0196H6.66528V25.1601Z" fill="white"/>
<path d="M15.0272 24.0553C15.2434 24.2996 15.5077 24.5089 15.832 24.695C16.3726 25.0206 17.1774 25.3346 18.2706 25.3346C20.2526 25.3346 21.4539 24.1716 21.4539 22.8343C21.4539 19.9967 17.2495 20.613 17.2495 19.2291C17.2495 18.764 17.5978 18.4151 18.5108 18.4151C18.9913 18.4151 19.3757 18.5895 19.652 18.764C19.8082 18.8686 19.9403 18.9849 20.0724 19.1129L21.2737 17.9499C21.0695 17.7522 20.8412 17.5661 20.565 17.4033C20.0965 17.1242 19.3757 16.8451 18.4507 16.8451C16.5287 16.8451 15.3875 17.9499 15.3875 19.2291C15.3875 22.0667 19.5919 21.4504 19.5919 22.8343C19.5919 23.3576 19.1715 23.7646 18.2105 23.7646C17.5738 23.7646 17.0813 23.5553 16.745 23.3343C16.5407 23.2064 16.3726 23.0552 16.2284 22.8924L15.0272 24.0553Z" fill="white"/>
<path d="M23.4112 24.3461C23.4112 24.8694 23.8317 25.2764 24.3722 25.2764C24.9128 25.2764 25.3333 24.8694 25.3333 24.3461C25.3333 23.8228 24.9128 23.4157 24.3722 23.4157C23.8317 23.4157 23.4112 23.8228 23.4112 24.3461Z" fill="white"/>
</svg>
